<svg xmlns="http://www.w3.org/2000/svg" width="48" height="15" fill="none" viewBox="0 0 48 15"><path fill="#fff" d="M14.03.32c.14.2.17.42.08.66L8.63 14.52a.7.7 0 0 1-.66.44H6.2a.7.7 0 0 1-.66-.44L.07.98A.62.62 0 0 1 .13.32.67.67 0 0 1 .7 0h6.68c.18 0 .35.07.49.21a.7.7 0 0 1 .2.51v1.46a.7.7 0 0 1-.2.51.67.67 0 0 1-.5.21H4.04l3.06 7.7L11.1.44a.7.7 0 0 1 .66-.44h1.68a.68.68 0 0 1 .58.32Zm5.8 5.62c.2 0 .37.07.5.21.14.14.2.31.2.51v7.48c0 .19-.06.35-.2.49a.66.66 0 0 1-.5.21h-1.51a.67.67 0 0 1-.5-.21.67.67 0 0 1-.2-.49V6.66c0-.2.07-.37.2-.51.15-.14.3-.21.5-.21h1.52Zm0-5.94c.2 0 .37.07.5.21.14.14.2.3.2.49v3.7c0 .2-.06.37-.2.51a.66.66 0 0 1-.5.21h-1.51a.67.67 0 0 1-.5-.21.7.7 0 0 1-.2-.51V.7c0-.19.07-.35.2-.49.15-.14.3-.21.5-.21h1.52Zm7.93 5.94c.2 0 .37.07.5.21.14.14.2.31.2.51v7.48c0 .19-.06.35-.2.49a.66.66 0 0 1-.5.21h-1.52a.67.67 0 0 1-.49-.21.67.67 0 0 1-.2-.49V6.66c0-.2.06-.37.2-.51s.3-.21.5-.21h1.51Zm0-5.94c.2 0 .37.07.5.21.14.14.2.3.2.49v3.7c0 .2-.06.37-.2.51a.66.66 0 0 1-.5.21h-1.52a.67.67 0 0 1-.49-.21.7.7 0 0 1-.2-.51V.7c0-.19.06-.35.2-.49s.3-.21.5-.21h1.51Zm11.51.16c.16.13.24.31.24.54v1.5a.7.7 0 0 1-.15.45.7.7 0 0 1-.4.25c-.86.17-1.59.58-2.19 1.22a4.63 4.63 0 0 0-1.22 3.33c0 1.37.4 2.48 1.22 3.35.6.63 1.33 1.03 2.18 1.2a.7.7 0 0 1 .41.25c.1.13.15.28.15.45v1.5a.7.7 0 0 1-.24.54c-.15.1-.3.16-.46.16h-.12a7.34 7.34 0 0 1-6.06-7.43c0-2.13.7-3.92 2.08-5.37A7.01 7.01 0 0 1 38.7.02a.7.7 0 0 1 .58.14Zm6.28 1.94a7.48 7.48 0 0 1 2.08 5.37 7.34 7.34 0 0 1-6.06 7.43h-.12a.77.77 0 0 1-.46-.16.7.7 0 0 1-.24-.54v-1.5a.7.7 0 0 1 .15-.45.7.7 0 0 1 .41-.25 4.07 4.07 0 0 0 2.18-1.2 4.7 4.7 0 0 0 1.22-3.35c0-1.37-.4-2.48-1.22-3.33a4.02 4.02 0 0 0-2.18-1.22.7.7 0 0 1-.4-.25.7.7 0 0 1-.16-.45V.7c0-.23.08-.4.25-.54a.67.67 0 0 1 .57-.14c1.57.27 2.9.96 3.98 2.08Z"/></svg>
